<?xml version="1.0" encoding="UTF-8" standalone="no"?>
<svg
   width="128"
   height="128"
   version="1.1"
   id="svg6"
   sodipodi:docname="icon.svg"
   inkscape:version="1.4.3 (0d15f75042, 2025-12-25)"
   xmlns:inkscape="http://www.inkscape.org/namespaces/inkscape"
   xmlns:sodipodi="http://sodipodi.sourceforge.net/DTD/sodipodi-0.dtd"
   xmlns="http://www.w3.org/2000/svg"
   xmlns:svg="http://www.w3.org/2000/svg">
  <defs
     id="defs6" />
  <sodipodi:namedview
     id="namedview6"
     pagecolor="#ffffff"
     bordercolor="#000000"
     borderopacity="0.25"
     inkscape:showpageshadow="2"
     inkscape:pageopacity="0.0"
     inkscape:pagecheckerboard="0"
     inkscape:deskcolor="#d1d1d1"
     inkscape:zoom="4.6790582"
     inkscape:cx="33.553761"
     inkscape:cy="74.480801"
     inkscape:window-width="1920"
     inkscape:window-height="1059"
     inkscape:window-x="0"
     inkscape:window-y="21"
     inkscape:window-maximized="1"
     inkscape:current-layer="svg6" />
  <rect
     width="124"
     height="124"
     x="2"
     y="2"
     fill="#363d52"
     stroke="#212532"
     stroke-width="4"
     rx="14"
     id="rect1"
     style="fill:#e17c0e;fill-opacity:1" />
  <path
     fill="#478cbf"
     d="m 105.141,47.156949 c 2.02,-2.626 3.90533,-5.353 5.656,-8.181 -2.35667,-3.972667 -5.151,-7.608667 -8.383,-10.908 -2.895334,1.346666 -5.656,2.929 -8.282,4.747 -2.693334,-2.491334 -5.656,-4.646 -8.888,-6.464 0.471334,-3.434 0.740666,-6.868 0.808,-10.302 -3.972666,-1.885334 -8.113666,-3.299334 -12.423,-4.242 -1.750666,2.895333 -3.299334,5.891666 -4.646,8.989 -3.299334,-0.471334 -6.598666,-0.471334 -9.898,0 -1.346666,-3.097334 -2.895334,-6.093667 -4.646,-8.989 -4.309334,0.942666 -8.450334,2.356666 -12.423,4.242 0.06733,3.434 0.336666,6.868 0.808,10.302 -3.232,1.818 -6.194666,3.972666 -8.888,6.464 -2.626,-1.818 -5.386666,-3.400334 -8.282,-4.747 -3.232,3.299333 -6.026333,6.935333 -8.383,10.908 1.750667,2.828 3.636,5.555 5.656,8.181 z M 33.868865,32.822165 c -2.626,-1.818 -5.386666,-3.400333 -8.282,-4.747 -3.232,3.299334 -6.026334,6.935334 -8.383,10.908 1.750666,2.828 3.636,5.555 5.656,8.181 z"
     id="path7"
     style="display:inline;fill:#008000;stroke-width:0.101"
     sodipodi:nodetypes="cccccccccccccccccccccc"
     inkscape:label="Green" />
  <circle
     style="display:inline;fill:#d40000"
     id="path6"
     cx="64"
     cy="72.009445"
     r="46.696575"
     inkscape:label="tomato" />
  <g
     fill="#ffffff"
     transform="matrix(0.101,0,0,0.101,12.322,8.090595)"
     id="g4"
     style="display:inline">
    <path
       d="m 58.579767,725.36887 8.464088,33 c 271.333335,236.00002 617.917695,236.00002 889.251025,0 l 8.19959,-33 z"
       id="path1"
       sodipodi:nodetypes="ccccc"
       inkscape:label="MouthWhite" />
    <path
       fill="#478cbf"
       d="m 58.183013,723.87262 198.816987,14 c 8,0.66667 13,5.33333 15,14 l 4,67 132,10 8,-61 c 1.33333,-7.33333 6.33333,-12.33333 15,-15 h 162 c 8.66667,2.66667 13.66667,7.66667 15,15 l 8,61 132,-10 4,-67 c 2,-8.66667 7,-13.33333 15,-14 l 196.51354,-14 z m 7.935083,33 35.910084,53.96254 c 152.90576,229.77344 709.36376,167.52159 827.07153,-6.73315 l 28.42882,-47.22939 -172.52853,12 -5,69 c -1.33333,6.66667 -6,11 -14,13 l -162,11 c -8,0 -13.33333,-3.66667 -16,-11 l -10,-65 H 446 l -10,65 c -2.66667,7.33333 -8,11 -16,11 l -162,-11 c -8,-2 -12.66667,-6.33333 -14,-13 l -5,-69 z"
       id="path2"
       style="fill:#d40000"
       sodipodi:nodetypes="ccccccccccccccccsccccccccccccccc"
       inkscape:label="GodotShape" />
    <path
       d="m 483,600 c 0,34 58,34 58,0 v -86 c 0,-34 -58,-34 -58,0 z"
       id="path3"
       inkscape:label="Nose" />
    <circle
       cx="725"
       cy="526"
       r="90"
       id="circle3"
       inkscape:label="EyeRight" />
    <circle
       cx="299"
       cy="526"
       r="90"
       id="circle4"
       inkscape:label="EyeLeft" />
  </g>
  <g
     fill="#414042"
     transform="matrix(0.101,0,0,0.101,12.322,8.090595)"
     id="g6"
     style="display:inline">
    <circle
       cx="717"
       cy="532"
       r="60"
       id="circle6"
       inkscape:label="EyeRight" />
    <circle
       cx="307"
       cy="532"
       r="60"
       id="circle5"
       style="display:inline"
       inkscape:label="EyeLeft" />
  </g>
</svg>
